<?xml version="1.0" encoding="iso-8859-1"?>
<!-- Generator: Adobe Illustrator 19.0.0, SVG Export Plug-In . SVG Version: 6.00 Build 0)  -->
<svg version="1.1" id="Layer_1" xmlns="http://www.w3.org/2000/svg" xmlns:xlink="http://www.w3.org/1999/xlink" x="0px" y="0px"
	 viewBox="0 0 512 512" style="enable-background:new 0 0 512 512;" xml:space="preserve">
<g>
	<g>
		<path d="M455.754,56.246C419.49,19.983,371.29,0.016,319.996,0.016c-51.278,0-99.494,19.976-135.757,56.23
			c-36.263,36.264-56.231,84.479-56.231,135.766c0,42.271,13.577,82.455,38.654,115.578l-26.904,26.904l-3.75-3.766
			c-2-2-4.718-3.125-7.546-3.125s-5.531,1.125-7.531,3.125L12.499,439.145C4.437,447.207,0,457.924,0,469.33
			c0,11.375,4.437,22.092,12.499,30.154c8.062,8.062,18.78,12.5,30.17,12.5c11.405,0,22.108-4.438,30.17-12.5l108.415-108.416
			c2-2,3.125-4.717,3.125-7.545s-1.125-5.531-3.125-7.531l-3.781-3.797l26.889-26.889c33.139,25.092,73.339,38.701,115.634,38.701
			c51.278,0,99.494-19.984,135.758-56.232C492.017,291.498,512,243.298,512,192.012S492.017,92.51,455.754,56.246z M411.678,50.1
			c0.906,0,1.797,0.117,2.641,0.344c12.421,3.326,22.372,35.355,10.421,79.978c-4.406,16.444-13.375,36.294-22.015,49.286
			l-42.981-11.523c-1-15.569,1.172-37.239,5.577-53.691c5.016-18.741,13.077-35.787,22.718-47.989
			C396.132,56.232,404.975,50.1,411.678,50.1z M57.762,484.391c-4.031,4.031-9.39,6.25-15.093,6.25
			c-5.688,0-11.046-2.219-15.077-6.234c-4.031-4.029-6.25-9.389-6.25-15.076c0-5.719,2.219-11.062,6.25-15.094l100.869-100.883
			l30.17,30.17L57.762,484.391z M162.396,357.117l-7.546-7.545l25.654-25.639c1.219,1.279,2.469,2.561,3.734,3.842
			c1.25,1.25,2.516,2.469,3.796,3.688L162.396,357.117z M289.717,337.494c-1.094,14.906-8.75,16.953-11.625,17.719
			c-1.453,0.406-2.858,0.594-4.171,0.594c-8.187,0-14.546-8.657-18.421-16.469l34.217-9.188
			C289.873,332.462,289.905,334.962,289.717,337.494z M440.676,312.684c-32.232,32.232-75.089,49.996-120.68,49.996
			c-5.484,0-10.922-0.281-16.296-0.781c4.141-6.061,6.624-13.748,7.296-22.842c0.938-12.875-2.141-24.545-2.266-25.029
			c-1.53-5.688-7.374-9.062-13.061-7.547L238.5,321.809c-2.734,0.719-5.062,2.498-6.484,4.967c-1.406,2.438-1.797,5.344-1.062,8.094
			c0.047,0.125,0.391,1.438,1.094,3.469c-11.765-7.094-22.764-15.686-32.732-25.654c-32.232-32.232-49.981-75.089-49.981-120.672
			s17.749-88.44,49.981-120.681c32.248-32.232,75.105-49.981,120.68-49.981c24.342,0,47.888,5.062,69.465,14.679
			c-6.234,4.094-12.344,9.875-18.171,17.265c-11.39,14.43-20.827,34.201-26.577,55.677c-5.843,21.827-8.108,50.927-5.374,69.199
			c0.625,4.202,3.687,7.624,7.796,8.726l57.152,15.319c0.922,0.242,1.844,0.359,2.766,0.359c3.203,0,6.297-1.445,8.344-4.023
			c11.516-14.46,24.107-40.786,29.951-62.613c4.953-18.468,6.891-36.911,5.703-53.254c25.639,30.631,39.607,68.901,39.607,109.329
			C490.658,237.595,472.908,280.451,440.676,312.684z"/>
	</g>
</g>
<g>
	<g>
		<path d="M295.326,218.262c-5.765-21.486-15.203-41.257-26.577-55.686c-12.655-16.046-26.623-24.522-40.404-24.522
			c-2.765,0-5.515,0.359-8.156,1.07c-14.843,3.977-25.342,18.171-29.545,39.967c-3.703,19.131-2.266,42.614,4.047,66.136
			c5.843,21.818,18.436,48.145,29.936,62.613c2.062,2.562,5.156,4.016,8.359,4.016c0.906,0,1.844-0.109,2.75-0.359l57.168-15.312
			c4.094-1.109,7.155-4.529,7.78-8.732C303.434,269.18,301.168,240.081,295.326,218.262z M280.295,277.467l-42.997,11.531
			c-8.64-13-17.592-32.85-22.014-49.294c-11.952-44.622-1.984-76.651,10.421-79.979c0.859-0.227,1.719-0.336,2.64-0.336
			c6.703,0,15.546,6.132,23.655,16.405c9.625,12.202,17.687,29.24,22.718,47.989C279.123,240.228,281.295,261.896,280.295,277.467z"
			/>
	</g>
</g>
<g>
	<g>
		<path d="M401.538,212.51l-57.169-15.312c-2.734-0.734-5.64-0.352-8.093,1.062c-2.453,1.414-4.234,3.742-4.968,6.477
			c-0.141,0.492-3.219,12.163-2.266,25.037c1.406,19.358,11.139,32.411,27.373,36.763c3.266,0.875,6.531,1.32,9.702,1.32
			c9.421,0,22.999-3.875,34.232-22.311c5.952-9.788,8.608-19.561,8.718-19.967C410.6,219.885,407.225,214.041,401.538,212.51z
			 M366.118,246.523c-1.312,0-2.718-0.203-4.171-0.594c-2.844-0.758-10.391-2.78-11.594-17.304
			c-0.234-2.679-0.188-5.327-0.031-7.749l34.186,9.163C380.852,237.54,374.664,246.523,366.118,246.523z"/>
	</g>
</g>
<g>
</g>
<g>
</g>
<g>
</g>
<g>
</g>
<g>
</g>
<g>
</g>
<g>
</g>
<g>
</g>
<g>
</g>
<g>
</g>
<g>
</g>
<g>
</g>
<g>
</g>
<g>
</g>
<g>
</g>
</svg>
